<svg xmlns="http://www.w3.org/2000/svg" style="display:none">
  <symbol id="icon-logo" viewBox="0 0 36 36">
    <circle cx="18" cy="18" r="18" fill="currentColor"/>
    <path fill-rule="evenodd" clip-rule="evenodd" d="M17.9504 16.6667C23.2339 12.6817 23.4672 10.2667 17.9504 6C12.3284 10.3577 13.053 12.6675 17.9504 16.6667ZM16.6667 18.0504C12.6817 12.7669 10.2667 12.5337 6 18.0504C10.3577 23.6724 12.6675 22.9478 16.6667 18.0504ZM29.9998 18.0504C26.0149 12.7669 23.5998 12.5337 19.3331 18.0504C23.6908 23.6724 26.0006 22.9478 29.9998 18.0504ZM17.9504 29.9997C23.2339 26.0148 23.4672 23.5997 17.9504 19.333C12.3284 23.6907 13.053 26.0005 17.9504 29.9997Z" fill="#FCFCFC"/>
  </symbol>
  <symbol id="icon-eye" viewBox="0 0 24 24" fill="none">
    <path d="M2 12s3.5-7 10-7 10 7 10 7-3.5 7-10 7-10-7-10-7z" stroke="currentColor" stroke-width="1.5"/>
    <circle cx="12" cy="12" r="3" stroke="currentColor" stroke-width="1.5"/>
  </symbol>
  <symbol id="icon-eye-off" viewBox="0 0 24 24" fill="none">
    <path d="M4 4l16 16M9.9 5.2A9.5 9.5 0 0112 5c6.5 0 10 7 10 7a17 17 0 01-3.2 3.9M6.1 7.1A17 17 0 002 12s3.5 7 10 7c1 0 2-.2 2.9-.5M9.9 9.9a3 3 0 004.2 4.2" stroke="currentColor" stroke-width="1.5" stroke-linecap="round"/>
  </symbol>
  <symbol id="icon-search" viewBox="0 0 24 24" fill="none">
    <circle cx="11" cy="11" r="7" stroke="currentColor" stroke-width="1.5"/>
    <path d="M20 20l-3.5-3.5" stroke="currentColor" stroke-width="1.5" stroke-linecap="round"/>
  </symbol>
  <symbol id="icon-plus" viewBox="0 0 20 20" fill="none">
    <path d="M10 4v12M4 10h12" stroke="currentColor" stroke-width="1.5" stroke-linecap="round"/>
  </symbol>
  <symbol id="icon-arrow-right" viewBox="0 0 20 20" fill="none">
    <path d="M3 10h13M11 5l5 5-5 5" stroke="currentColor" stroke-width="1.5" stroke-linecap="round" stroke-linejoin="round"/>
  </symbol>
  <symbol id="icon-dots" viewBox="0 0 20 20" fill="currentColor">
    <circle cx="4" cy="10" r="1.6"/>
    <circle cx="10" cy="10" r="1.6"/>
    <circle cx="16" cy="10" r="1.6"/>
  </symbol>
  <symbol id="icon-edit" viewBox="0 0 20 20" fill="none">
    <path d="M13.5 3.5l3 3L7 16l-3.5.5.5-3.5 9.5-9.5z" stroke="currentColor" stroke-width="1.5" stroke-linejoin="round"/>
  </symbol>
  <symbol id="icon-trash" viewBox="0 0 20 20" fill="none">
    <path d="M3.5 5.5h13M8 5.5V4a1 1 0 011-1h2a1 1 0 011 1v1.5M5 5.5l.7 10a1 1 0 001 .9h6.6a1 1 0 001-.9l.7-10" stroke="currentColor" stroke-width="1.5" stroke-linecap="round" stroke-linejoin="round"/>
  </symbol>
  <symbol id="icon-close" viewBox="0 0 24 24" fill="none">
    <path d="M6 6l12 12M18 6L6 18" stroke="currentColor" stroke-width="1.8" stroke-linecap="round"/>
  </symbol>
  <symbol id="icon-chevron-down" viewBox="0 0 20 20" fill="none">
    <path d="M5 7.5l5 5 5-5" stroke="currentColor" stroke-width="1.5" stroke-linecap="round" stroke-linejoin="round"/>
  </symbol>
  <symbol id="icon-switch" viewBox="0 0 24 24" fill="none">
    <path d="M4 8h13l-3-3M20 16H7l3 3" stroke="currentColor" stroke-width="1.5" stroke-linecap="round" stroke-linejoin="round"/>
  </symbol>
  <symbol id="icon-burger" viewBox="0 0 32 32" fill="none">
    <path d="M6 11h20M6 16h20M6 21h20" stroke="currentColor" stroke-width="1.8" stroke-linecap="round"/>
  </symbol>
  <symbol id="icon-error" viewBox="0 0 16 16" fill="currentColor">
    <path d="M8 1a7 7 0 100 14A7 7 0 008 1zm0 3a.9.9 0 01.9.9v3.4a.9.9 0 01-1.8 0V4.9A.9.9 0 018 4zm0 6.6a1 1 0 110 2 1 1 0 010-2z"/>
  </symbol>
  <symbol id="icon-success" viewBox="0 0 16 16" fill="currentColor">
    <path d="M8 1a7 7 0 100 14A7 7 0 008 1zm3.5 5.2l-4 4a.9.9 0 01-1.3 0L4.5 8.6a.9.9 0 011.3-1.3l1 1 3.4-3.4a.9.9 0 011.3 1.3z"/>
  </symbol>
  <symbol id="icon-user" viewBox="0 0 24 24" fill="none">
    <circle cx="12" cy="8" r="4" fill="currentColor"/>
    <path d="M4 20c0-4 3.6-6 8-6s8 2 8 6" fill="currentColor"/>
  </symbol>
  <symbol id="icon-flag-uk" viewBox="0 0 32 32">
    <g clip-path="url(#vb-clip-flag-uk)">
      <path d="M16 32C24.8366 32 32 24.8366 32 16C32 7.16344 24.8366 0 16 0C7.16344 0 0 7.16344 0 16C0 24.8366 7.16344 32 16 32Z" fill="#F0F0F0"/>
      <path d="M3.30758 6.25891C2.05077 7.8941 1.10308 9.77879 0.55127 11.8262H8.87489L3.30758 6.25891Z" fill="#0052B4"/>
      <path d="M31.449 11.8262C30.8972 9.77885 29.9494 7.89416 28.6927 6.25897L23.1255 11.8262H31.449Z" fill="#0052B4"/>
      <path d="M0.55127 20.174C1.10314 22.2214 2.05083 24.1061 3.30758 25.7412L8.87471 20.174H0.55127Z" fill="#0052B4"/>
      <path d="M25.7413 3.30758C24.1061 2.05077 22.2215 1.10308 20.1741 0.551208V8.87477L25.7413 3.30758Z" fill="#0052B4"/>
      <path d="M6.25903 28.6924C7.89422 29.9492 9.77891 30.8969 11.8263 31.4488V23.1253L6.25903 28.6924Z" fill="#0052B4"/>
      <path d="M11.8262 0.551208C9.77885 1.10308 7.89416 2.05077 6.25903 3.30752L11.8262 8.87471V0.551208Z" fill="#0052B4"/>
      <path d="M20.1741 31.4488C22.2214 30.8969 24.1061 29.9492 25.7413 28.6925L20.1741 23.1253V31.4488Z" fill="#0052B4"/>
      <path d="M23.1255 20.174L28.6927 25.7413C29.9494 24.1061 30.8972 22.2214 31.449 20.174H23.1255Z" fill="#0052B4"/>
      <path d="M31.8646 13.9131H18.0871H18.087V0.135438C17.4038 0.0465 16.7073 0 16 0C15.2926 0 14.5962 0.0465 13.9131 0.135438V13.9129V13.913H0.135438C0.0465 14.5962 0 15.2927 0 16C0 16.7074 0.0465 17.4038 0.135438 18.0869H13.9129H13.913V31.8646C14.5962 31.9535 15.2926 32 16 32C16.7073 32 17.4038 31.9536 18.0869 31.8646V18.0871V18.087H31.8646C31.9535 17.4038 32 16.7074 32 16C32 15.2927 31.9535 14.5962 31.8646 13.9131Z" fill="#D80027"/>
      <path d="M20.1738 20.174L27.3136 27.3138C27.642 26.9855 27.9552 26.6423 28.2541 26.2866L22.1415 20.174H20.1738V20.174Z" fill="#D80027"/>
      <path d="M11.8261 20.174H11.826L4.68628 27.3137C5.01453 27.6421 5.35772 27.9553 5.71347 28.2542L11.8261 22.1414V20.174Z" fill="#D80027"/>
      <path d="M11.8261 11.8262V11.8261L4.68635 4.68628C4.35797 5.01453 4.04472 5.35772 3.74585 5.71347L9.85854 11.8262H11.8261V11.8262Z" fill="#D80027"/>
      <path d="M20.1738 11.8262L27.3136 4.68629C26.9854 4.35791 26.6422 4.04466 26.2865 3.74585L20.1738 9.85854V11.8262Z" fill="#D80027"/>
    </g>
    <defs>
      <clipPath id="vb-clip-flag-uk">
        <rect width="32" height="32" fill="white"/>
      </clipPath>
    </defs>
  </symbol>
  <symbol id="icon-flag-ua" viewBox="0 0 32 32">
    <path d="M16 32C24.8366 32 32 24.8366 32 16C32 7.16344 24.8366 0 16 0C7.16344 0 0 7.16344 0 16C0 24.8366 7.16344 32 16 32Z" fill="#FFDA44"/>
    <path d="M0 16C0 7.1635 7.1635 0 16 0C24.8365 0 32 7.1635 32 16" fill="#338AF3"/>
  </symbol>
  <symbol id="icon-chevron-right" viewBox="0 0 16 16">
    <path d="M6.47 4 5.53 4.94 8.58 8 5.53 11.06 6.47 12 10.47 8z" fill="currentColor"/>
  </symbol>
  <symbol id="icon-chevron-double-right" viewBox="0 0 16 16">
    <path d="M4.27 4 3.33 4.94 6.38 8 3.33 11.06 4.27 12 8.27 8z" fill="currentColor"/>
    <path d="M8.67 4 7.73 4.94 10.78 8 7.73 11.06 8.67 12 12.67 8z" fill="currentColor"/>
  </symbol>
</svg>
