<svg xmlns="http://www.w3.org/2000/svg" style="display:none">
  <symbol id="icon-logo" viewBox="0 0 32 32">
    <path fill="currentColor" d="M16 4l5.5 5.5a2 2 0 010 2.8L16 17.9l-5.5-5.6a2 2 0 010-2.8L16 4zM9.5 10.5L15 16l-5.5 5.5L4 16l5.5-5.5zM22.5 10.5L28 16l-5.5 5.5L17 16l5.5-5.5zM16 14.1l5.5 5.6a2 2 0 010 2.8L16 28l-5.5-5.5a2 2 0 010-2.8l5.5-5.6z"/>
  </symbol>
  <symbol id="icon-eye" viewBox="0 0 24 24" fill="none">
    <path d="M2 12s3.5-7 10-7 10 7 10 7-3.5 7-10 7-10-7-10-7z" stroke="currentColor" stroke-width="1.5"/>
    <circle cx="12" cy="12" r="3" stroke="currentColor" stroke-width="1.5"/>
  </symbol>
  <symbol id="icon-eye-off" viewBox="0 0 24 24" fill="none">
    <path d="M4 4l16 16M9.9 5.2A9.5 9.5 0 0112 5c6.5 0 10 7 10 7a17 17 0 01-3.2 3.9M6.1 7.1A17 17 0 002 12s3.5 7 10 7c1 0 2-.2 2.9-.5M9.9 9.9a3 3 0 004.2 4.2" stroke="currentColor" stroke-width="1.5" stroke-linecap="round"/>
  </symbol>
  <symbol id="icon-search" viewBox="0 0 24 24" fill="none">
    <circle cx="11" cy="11" r="7" stroke="currentColor" stroke-width="1.5"/>
    <path d="M20 20l-3.5-3.5" stroke="currentColor" stroke-width="1.5" stroke-linecap="round"/>
  </symbol>
  <symbol id="icon-plus" viewBox="0 0 20 20" fill="none">
    <path d="M10 4v12M4 10h12" stroke="currentColor" stroke-width="1.5" stroke-linecap="round"/>
  </symbol>
  <symbol id="icon-arrow-right" viewBox="0 0 20 20" fill="none">
    <path d="M3 10h13M11 5l5 5-5 5" stroke="currentColor" stroke-width="1.5" stroke-linecap="round" stroke-linejoin="round"/>
  </symbol>
  <symbol id="icon-dots" viewBox="0 0 20 20" fill="currentColor">
    <circle cx="4" cy="10" r="1.6"/>
    <circle cx="10" cy="10" r="1.6"/>
    <circle cx="16" cy="10" r="1.6"/>
  </symbol>
  <symbol id="icon-edit" viewBox="0 0 20 20" fill="none">
    <path d="M13.5 3.5l3 3L7 16l-3.5.5.5-3.5 9.5-9.5z" stroke="currentColor" stroke-width="1.5" stroke-linejoin="round"/>
  </symbol>
  <symbol id="icon-trash" viewBox="0 0 20 20" fill="none">
    <path d="M3.5 5.5h13M8 5.5V4a1 1 0 011-1h2a1 1 0 011 1v1.5M5 5.5l.7 10a1 1 0 001 .9h6.6a1 1 0 001-.9l.7-10" stroke="currentColor" stroke-width="1.5" stroke-linecap="round" stroke-linejoin="round"/>
  </symbol>
  <symbol id="icon-close" viewBox="0 0 24 24" fill="none">
    <path d="M6 6l12 12M18 6L6 18" stroke="currentColor" stroke-width="1.8" stroke-linecap="round"/>
  </symbol>
  <symbol id="icon-chevron-down" viewBox="0 0 20 20" fill="none">
    <path d="M5 7.5l5 5 5-5" stroke="currentColor" stroke-width="1.5" stroke-linecap="round" stroke-linejoin="round"/>
  </symbol>
  <symbol id="icon-switch" viewBox="0 0 24 24" fill="none">
    <path d="M4 8h13l-3-3M20 16H7l3 3" stroke="currentColor" stroke-width="1.5" stroke-linecap="round" stroke-linejoin="round"/>
  </symbol>
  <symbol id="icon-burger" viewBox="0 0 32 32" fill="none">
    <path d="M6 11h20M6 16h20M6 21h20" stroke="currentColor" stroke-width="1.8" stroke-linecap="round"/>
  </symbol>
  <symbol id="icon-error" viewBox="0 0 16 16" fill="currentColor">
    <path d="M8 1a7 7 0 100 14A7 7 0 008 1zm0 3a.9.9 0 01.9.9v3.4a.9.9 0 01-1.8 0V4.9A.9.9 0 018 4zm0 6.6a1 1 0 110 2 1 1 0 010-2z"/>
  </symbol>
  <symbol id="icon-success" viewBox="0 0 16 16" fill="currentColor">
    <path d="M8 1a7 7 0 100 14A7 7 0 008 1zm3.5 5.2l-4 4a.9.9 0 01-1.3 0L4.5 8.6a.9.9 0 011.3-1.3l1 1 3.4-3.4a.9.9 0 011.3 1.3z"/>
  </symbol>
  <symbol id="icon-user" viewBox="0 0 24 24" fill="none">
    <circle cx="12" cy="8" r="4" fill="currentColor"/>
    <path d="M4 20c0-4 3.6-6 8-6s8 2 8 6" fill="currentColor"/>
  </symbol>
  <symbol id="icon-flag-uk" viewBox="0 0 32 32">
    <circle cx="16" cy="16" r="16" fill="#F0F0F0"/>
    <path d="M16 4v24M4 16h24" stroke="#0052B4" stroke-width="5"/>
    <path d="M16 4v24M4 16h24" stroke="#D80027" stroke-width="2.5"/>
    <path d="M4 6l24 20M28 6L4 26" stroke="#0052B4" stroke-width="3"/>
    <path d="M4 6l24 20M28 6L4 26" stroke="#D80027" stroke-width="1.5"/>
  </symbol>
  <symbol id="icon-flag-ua" viewBox="0 0 32 32">
    <circle cx="16" cy="16" r="16" fill="#FFDA44"/>
    <path d="M0 16a16 16 0 0132 0z" fill="#338AF3"/>
  </symbol>
</svg>
